# xmcd CD database file
#
# Track frame offsets:
#	150
#	19869
#	36567
#	65817
#	85902
#	116922
#	135040
#	158645
#	177610
#
# Disc length: 2686 seconds
#
# Revision: 2
# Processed by: cddbd v1.5.2PL0 Copyright (c) Steve Scherf et al.
# Submitted via: CDex 1.51
#
DISCID=7a0a7c09
DTITLE=Kullhammar - Osgood - Vågan - Andtratx
DYEAR=2005
DGENRE=Jazz
TTITLE0=Salut
TTITLE1=Day and nights waiting
TTITLE2=Ebony queen
TTITLE3=Kifi
TTITLE4=Black Benny
TTITLE5=Goodby Lenin - Hello Stalin
TTITLE6=Settled in the saddle
TTITLE7=Kid dynamite
TTITLE8=Ida Lupino
EXTD=YEAR: 2005
EXTT0=
EXTT1=
EXTT2=
EXTT3=
EXTT4=
EXTT5=
EXTT6=
EXTT7=
EXTT8=
PLAYORDER=
